<mxfile host="app.diagrams.net" agent="Mozilla/5.0 (Windows NT 10.0; Win64; x64) AppleWebKit/537.36 (KHTML, like Gecko) Chrome/126.0.0.0 Safari/537.36" version="24.7.5">
  <diagram name="第 1 页" id="h_oGdat_hJrlbV5CpcHk">
    <mxGraphModel dx="2261" dy="841" grid="1" gridSize="10" guides="1" tooltips="1" connect="1" arrows="1" fold="1" page="1" pageScale="1" pageWidth="827" pageHeight="1169" math="0" shadow="0">
      <root>
        <mxCell id="0" />
        <mxCell id="1" parent="0" />
        <mxCell id="kaJzyL5myrryQxfhcefb-21" style="edgeStyle=orthogonalEdgeStyle;rounded=0;orthogonalLoop=1;jettySize=auto;html=1;exitX=0.5;exitY=1;exitDx=0;exitDy=0;entryX=0.5;entryY=0;entryDx=0;entryDy=0;curved=1;" edge="1" parent="1" source="kaJzyL5myrryQxfhcefb-5" target="kaJzyL5myrryQxfhcefb-16">
          <mxGeometry relative="1" as="geometry" />
        </mxCell>
        <mxCell id="kaJzyL5myrryQxfhcefb-24" value="选1" style="edgeLabel;html=1;align=center;verticalAlign=middle;resizable=0;points=[];" vertex="1" connectable="0" parent="kaJzyL5myrryQxfhcefb-21">
          <mxGeometry x="0.0267" relative="1" as="geometry">
            <mxPoint as="offset" />
          </mxGeometry>
        </mxCell>
        <mxCell id="kaJzyL5myrryQxfhcefb-22" style="edgeStyle=orthogonalEdgeStyle;rounded=0;orthogonalLoop=1;jettySize=auto;html=1;exitX=0.5;exitY=1;exitDx=0;exitDy=0;entryX=0.5;entryY=0;entryDx=0;entryDy=0;curved=1;" edge="1" parent="1" source="kaJzyL5myrryQxfhcefb-5" target="kaJzyL5myrryQxfhcefb-14">
          <mxGeometry relative="1" as="geometry" />
        </mxCell>
        <mxCell id="kaJzyL5myrryQxfhcefb-27" value="选2" style="edgeLabel;html=1;align=center;verticalAlign=middle;resizable=0;points=[];" vertex="1" connectable="0" parent="kaJzyL5myrryQxfhcefb-22">
          <mxGeometry x="0.0857" relative="1" as="geometry">
            <mxPoint as="offset" />
          </mxGeometry>
        </mxCell>
        <mxCell id="kaJzyL5myrryQxfhcefb-23" style="edgeStyle=orthogonalEdgeStyle;rounded=0;orthogonalLoop=1;jettySize=auto;html=1;exitX=0.5;exitY=1;exitDx=0;exitDy=0;entryX=0.5;entryY=0;entryDx=0;entryDy=0;curved=1;" edge="1" parent="1" source="kaJzyL5myrryQxfhcefb-5" target="kaJzyL5myrryQxfhcefb-18">
          <mxGeometry relative="1" as="geometry" />
        </mxCell>
        <mxCell id="kaJzyL5myrryQxfhcefb-28" value="选3" style="edgeLabel;html=1;align=center;verticalAlign=middle;resizable=0;points=[];" vertex="1" connectable="0" parent="kaJzyL5myrryQxfhcefb-23">
          <mxGeometry x="-0.0467" y="-2" relative="1" as="geometry">
            <mxPoint as="offset" />
          </mxGeometry>
        </mxCell>
        <mxCell id="kaJzyL5myrryQxfhcefb-5" value="" style="rounded=1;whiteSpace=wrap;html=1;" vertex="1" parent="1">
          <mxGeometry x="330" y="170" width="180" height="60" as="geometry" />
        </mxCell>
        <mxCell id="kaJzyL5myrryQxfhcefb-6" value="数组内待选数字[1,2,3]&lt;div&gt;已选取数字[]&lt;/div&gt;" style="text;html=1;align=center;verticalAlign=middle;whiteSpace=wrap;rounded=0;" vertex="1" parent="1">
          <mxGeometry x="340" y="180" width="160" height="40" as="geometry" />
        </mxCell>
        <mxCell id="kaJzyL5myrryQxfhcefb-60" style="edgeStyle=orthogonalEdgeStyle;rounded=0;orthogonalLoop=1;jettySize=auto;html=1;exitX=0.5;exitY=1;exitDx=0;exitDy=0;entryX=0.5;entryY=0;entryDx=0;entryDy=0;curved=1;" edge="1" parent="1" source="kaJzyL5myrryQxfhcefb-14" target="kaJzyL5myrryQxfhcefb-50">
          <mxGeometry relative="1" as="geometry" />
        </mxCell>
        <mxCell id="kaJzyL5myrryQxfhcefb-63" value="选1" style="edgeLabel;html=1;align=center;verticalAlign=middle;resizable=0;points=[];" vertex="1" connectable="0" parent="kaJzyL5myrryQxfhcefb-60">
          <mxGeometry x="0.1529" relative="1" as="geometry">
            <mxPoint as="offset" />
          </mxGeometry>
        </mxCell>
        <mxCell id="kaJzyL5myrryQxfhcefb-61" style="edgeStyle=orthogonalEdgeStyle;rounded=0;orthogonalLoop=1;jettySize=auto;html=1;exitX=0.5;exitY=1;exitDx=0;exitDy=0;entryX=0.5;entryY=0;entryDx=0;entryDy=0;curved=1;" edge="1" parent="1" source="kaJzyL5myrryQxfhcefb-14" target="kaJzyL5myrryQxfhcefb-54">
          <mxGeometry relative="1" as="geometry" />
        </mxCell>
        <mxCell id="kaJzyL5myrryQxfhcefb-64" value="选3" style="edgeLabel;html=1;align=center;verticalAlign=middle;resizable=0;points=[];" vertex="1" connectable="0" parent="kaJzyL5myrryQxfhcefb-61">
          <mxGeometry x="0.1882" y="-3" relative="1" as="geometry">
            <mxPoint as="offset" />
          </mxGeometry>
        </mxCell>
        <mxCell id="kaJzyL5myrryQxfhcefb-14" value="" style="rounded=1;whiteSpace=wrap;html=1;" vertex="1" parent="1">
          <mxGeometry x="330" y="300" width="180" height="60" as="geometry" />
        </mxCell>
        <mxCell id="kaJzyL5myrryQxfhcefb-15" value="数组内待选数字[1,3]&lt;div&gt;已选取数字[2]&lt;/div&gt;" style="text;html=1;align=center;verticalAlign=middle;whiteSpace=wrap;rounded=0;" vertex="1" parent="1">
          <mxGeometry x="340" y="310" width="160" height="40" as="geometry" />
        </mxCell>
        <mxCell id="kaJzyL5myrryQxfhcefb-35" style="edgeStyle=orthogonalEdgeStyle;rounded=0;orthogonalLoop=1;jettySize=auto;html=1;exitX=0.5;exitY=1;exitDx=0;exitDy=0;entryX=0.5;entryY=0;entryDx=0;entryDy=0;curved=1;" edge="1" parent="1" source="kaJzyL5myrryQxfhcefb-16" target="kaJzyL5myrryQxfhcefb-31">
          <mxGeometry relative="1" as="geometry" />
        </mxCell>
        <mxCell id="kaJzyL5myrryQxfhcefb-44" value="选2" style="edgeLabel;html=1;align=center;verticalAlign=middle;resizable=0;points=[];" vertex="1" connectable="0" parent="kaJzyL5myrryQxfhcefb-35">
          <mxGeometry x="-0.0571" relative="1" as="geometry">
            <mxPoint as="offset" />
          </mxGeometry>
        </mxCell>
        <mxCell id="kaJzyL5myrryQxfhcefb-36" style="edgeStyle=orthogonalEdgeStyle;rounded=0;orthogonalLoop=1;jettySize=auto;html=1;exitX=0.5;exitY=1;exitDx=0;exitDy=0;entryX=0.5;entryY=0;entryDx=0;entryDy=0;curved=1;" edge="1" parent="1" source="kaJzyL5myrryQxfhcefb-16" target="kaJzyL5myrryQxfhcefb-33">
          <mxGeometry relative="1" as="geometry" />
        </mxCell>
        <mxCell id="kaJzyL5myrryQxfhcefb-45" value="选3" style="edgeLabel;html=1;align=center;verticalAlign=middle;resizable=0;points=[];" vertex="1" connectable="0" parent="kaJzyL5myrryQxfhcefb-36">
          <mxGeometry x="0.1333" y="2" relative="1" as="geometry">
            <mxPoint as="offset" />
          </mxGeometry>
        </mxCell>
        <mxCell id="kaJzyL5myrryQxfhcefb-16" value="" style="rounded=1;whiteSpace=wrap;html=1;" vertex="1" parent="1">
          <mxGeometry y="300" width="180" height="60" as="geometry" />
        </mxCell>
        <mxCell id="kaJzyL5myrryQxfhcefb-17" value="数组内待选数字[2,3]&lt;div&gt;已选取数字[1]&lt;/div&gt;" style="text;html=1;align=center;verticalAlign=middle;whiteSpace=wrap;rounded=0;" vertex="1" parent="1">
          <mxGeometry x="10" y="310" width="160" height="40" as="geometry" />
        </mxCell>
        <mxCell id="kaJzyL5myrryQxfhcefb-80" style="edgeStyle=orthogonalEdgeStyle;rounded=0;orthogonalLoop=1;jettySize=auto;html=1;exitX=0.5;exitY=1;exitDx=0;exitDy=0;entryX=0.5;entryY=0;entryDx=0;entryDy=0;curved=1;" edge="1" parent="1" source="kaJzyL5myrryQxfhcefb-18" target="kaJzyL5myrryQxfhcefb-70">
          <mxGeometry relative="1" as="geometry" />
        </mxCell>
        <mxCell id="kaJzyL5myrryQxfhcefb-82" value="选1" style="edgeLabel;html=1;align=center;verticalAlign=middle;resizable=0;points=[];" vertex="1" connectable="0" parent="kaJzyL5myrryQxfhcefb-80">
          <mxGeometry x="0.1667" y="-1" relative="1" as="geometry">
            <mxPoint as="offset" />
          </mxGeometry>
        </mxCell>
        <mxCell id="kaJzyL5myrryQxfhcefb-81" style="edgeStyle=orthogonalEdgeStyle;rounded=0;orthogonalLoop=1;jettySize=auto;html=1;exitX=0.5;exitY=1;exitDx=0;exitDy=0;entryX=0.5;entryY=0;entryDx=0;entryDy=0;curved=1;" edge="1" parent="1" source="kaJzyL5myrryQxfhcefb-18" target="kaJzyL5myrryQxfhcefb-74">
          <mxGeometry relative="1" as="geometry" />
        </mxCell>
        <mxCell id="kaJzyL5myrryQxfhcefb-83" value="Text" style="edgeLabel;html=1;align=center;verticalAlign=middle;resizable=0;points=[];" vertex="1" connectable="0" parent="kaJzyL5myrryQxfhcefb-81">
          <mxGeometry x="0.1286" y="3" relative="1" as="geometry">
            <mxPoint as="offset" />
          </mxGeometry>
        </mxCell>
        <mxCell id="kaJzyL5myrryQxfhcefb-18" value="" style="rounded=1;whiteSpace=wrap;html=1;" vertex="1" parent="1">
          <mxGeometry x="660" y="300" width="180" height="60" as="geometry" />
        </mxCell>
        <mxCell id="kaJzyL5myrryQxfhcefb-19" value="数组内待选数字[1,2]&lt;div&gt;已选取数字[3]&lt;/div&gt;" style="text;html=1;align=center;verticalAlign=middle;whiteSpace=wrap;rounded=0;" vertex="1" parent="1">
          <mxGeometry x="670" y="310" width="160" height="40" as="geometry" />
        </mxCell>
        <mxCell id="kaJzyL5myrryQxfhcefb-39" style="edgeStyle=orthogonalEdgeStyle;rounded=0;orthogonalLoop=1;jettySize=auto;html=1;exitX=0.5;exitY=1;exitDx=0;exitDy=0;entryX=0.5;entryY=0;entryDx=0;entryDy=0;" edge="1" parent="1" source="kaJzyL5myrryQxfhcefb-31" target="kaJzyL5myrryQxfhcefb-37">
          <mxGeometry relative="1" as="geometry" />
        </mxCell>
        <mxCell id="kaJzyL5myrryQxfhcefb-46" value="选3" style="edgeLabel;html=1;align=center;verticalAlign=middle;resizable=0;points=[];" vertex="1" connectable="0" parent="kaJzyL5myrryQxfhcefb-39">
          <mxGeometry x="-0.1" y="-4" relative="1" as="geometry">
            <mxPoint as="offset" />
          </mxGeometry>
        </mxCell>
        <mxCell id="kaJzyL5myrryQxfhcefb-31" value="" style="rounded=1;whiteSpace=wrap;html=1;" vertex="1" parent="1">
          <mxGeometry x="-220" y="420" width="180" height="60" as="geometry" />
        </mxCell>
        <mxCell id="kaJzyL5myrryQxfhcefb-32" value="数组内待选数字[3]&lt;div&gt;已选取数字[1,2]&lt;/div&gt;" style="text;html=1;align=center;verticalAlign=middle;whiteSpace=wrap;rounded=0;" vertex="1" parent="1">
          <mxGeometry x="-210" y="430" width="160" height="40" as="geometry" />
        </mxCell>
        <mxCell id="kaJzyL5myrryQxfhcefb-43" style="edgeStyle=orthogonalEdgeStyle;rounded=0;orthogonalLoop=1;jettySize=auto;html=1;exitX=0.5;exitY=1;exitDx=0;exitDy=0;entryX=0.5;entryY=0;entryDx=0;entryDy=0;" edge="1" parent="1" source="kaJzyL5myrryQxfhcefb-33" target="kaJzyL5myrryQxfhcefb-41">
          <mxGeometry relative="1" as="geometry" />
        </mxCell>
        <mxCell id="kaJzyL5myrryQxfhcefb-47" value="选2" style="edgeLabel;html=1;align=center;verticalAlign=middle;resizable=0;points=[];" vertex="1" connectable="0" parent="kaJzyL5myrryQxfhcefb-43">
          <mxGeometry x="-0.1" y="1" relative="1" as="geometry">
            <mxPoint as="offset" />
          </mxGeometry>
        </mxCell>
        <mxCell id="kaJzyL5myrryQxfhcefb-33" value="" style="rounded=1;whiteSpace=wrap;html=1;" vertex="1" parent="1">
          <mxGeometry y="420" width="180" height="60" as="geometry" />
        </mxCell>
        <mxCell id="kaJzyL5myrryQxfhcefb-34" value="数组内待选数字[2]&lt;div&gt;已选取数字[1,3]&lt;/div&gt;" style="text;html=1;align=center;verticalAlign=middle;whiteSpace=wrap;rounded=0;" vertex="1" parent="1">
          <mxGeometry x="10" y="430" width="160" height="40" as="geometry" />
        </mxCell>
        <mxCell id="kaJzyL5myrryQxfhcefb-37" value="" style="rounded=1;whiteSpace=wrap;html=1;" vertex="1" parent="1">
          <mxGeometry x="-220" y="540" width="180" height="60" as="geometry" />
        </mxCell>
        <mxCell id="kaJzyL5myrryQxfhcefb-38" value="数组内待选数字[]&lt;div&gt;已选取数字[1,2,3]&lt;/div&gt;" style="text;html=1;align=center;verticalAlign=middle;whiteSpace=wrap;rounded=0;" vertex="1" parent="1">
          <mxGeometry x="-210" y="550" width="160" height="40" as="geometry" />
        </mxCell>
        <mxCell id="kaJzyL5myrryQxfhcefb-41" value="" style="rounded=1;whiteSpace=wrap;html=1;" vertex="1" parent="1">
          <mxGeometry y="540" width="180" height="60" as="geometry" />
        </mxCell>
        <mxCell id="kaJzyL5myrryQxfhcefb-42" value="数组内待选数字[]&lt;div&gt;已选取数字[1,3&lt;span style=&quot;background-color: initial;&quot;&gt;,2&lt;/span&gt;&lt;span style=&quot;background-color: initial;&quot;&gt;]&lt;/span&gt;&lt;/div&gt;" style="text;html=1;align=center;verticalAlign=middle;whiteSpace=wrap;rounded=0;" vertex="1" parent="1">
          <mxGeometry x="10" y="550" width="160" height="40" as="geometry" />
        </mxCell>
        <mxCell id="kaJzyL5myrryQxfhcefb-48" style="edgeStyle=orthogonalEdgeStyle;rounded=0;orthogonalLoop=1;jettySize=auto;html=1;exitX=0.5;exitY=1;exitDx=0;exitDy=0;entryX=0.5;entryY=0;entryDx=0;entryDy=0;" edge="1" parent="1" source="kaJzyL5myrryQxfhcefb-50" target="kaJzyL5myrryQxfhcefb-56">
          <mxGeometry relative="1" as="geometry" />
        </mxCell>
        <mxCell id="kaJzyL5myrryQxfhcefb-49" value="选3" style="edgeLabel;html=1;align=center;verticalAlign=middle;resizable=0;points=[];" vertex="1" connectable="0" parent="kaJzyL5myrryQxfhcefb-48">
          <mxGeometry x="-0.1" y="-4" relative="1" as="geometry">
            <mxPoint as="offset" />
          </mxGeometry>
        </mxCell>
        <mxCell id="kaJzyL5myrryQxfhcefb-50" value="" style="rounded=1;whiteSpace=wrap;html=1;" vertex="1" parent="1">
          <mxGeometry x="220" y="420" width="180" height="60" as="geometry" />
        </mxCell>
        <mxCell id="kaJzyL5myrryQxfhcefb-51" value="数组内待选数字[3]&lt;div&gt;已选取数字[2,1]&lt;/div&gt;" style="text;html=1;align=center;verticalAlign=middle;whiteSpace=wrap;rounded=0;" vertex="1" parent="1">
          <mxGeometry x="230" y="430" width="160" height="40" as="geometry" />
        </mxCell>
        <mxCell id="kaJzyL5myrryQxfhcefb-52" style="edgeStyle=orthogonalEdgeStyle;rounded=0;orthogonalLoop=1;jettySize=auto;html=1;exitX=0.5;exitY=1;exitDx=0;exitDy=0;entryX=0.5;entryY=0;entryDx=0;entryDy=0;" edge="1" parent="1" source="kaJzyL5myrryQxfhcefb-54" target="kaJzyL5myrryQxfhcefb-58">
          <mxGeometry relative="1" as="geometry" />
        </mxCell>
        <mxCell id="kaJzyL5myrryQxfhcefb-67" value="选1" style="edgeLabel;html=1;align=center;verticalAlign=middle;resizable=0;points=[];" vertex="1" connectable="0" parent="kaJzyL5myrryQxfhcefb-52">
          <mxGeometry x="-0.0333" y="2" relative="1" as="geometry">
            <mxPoint as="offset" />
          </mxGeometry>
        </mxCell>
        <mxCell id="kaJzyL5myrryQxfhcefb-54" value="" style="rounded=1;whiteSpace=wrap;html=1;" vertex="1" parent="1">
          <mxGeometry x="440" y="420" width="180" height="60" as="geometry" />
        </mxCell>
        <mxCell id="kaJzyL5myrryQxfhcefb-55" value="数组内待选数字[1]&lt;div&gt;已选取数字[2,3]&lt;/div&gt;" style="text;html=1;align=center;verticalAlign=middle;whiteSpace=wrap;rounded=0;" vertex="1" parent="1">
          <mxGeometry x="450" y="430" width="160" height="40" as="geometry" />
        </mxCell>
        <mxCell id="kaJzyL5myrryQxfhcefb-56" value="" style="rounded=1;whiteSpace=wrap;html=1;" vertex="1" parent="1">
          <mxGeometry x="220" y="540" width="180" height="60" as="geometry" />
        </mxCell>
        <mxCell id="kaJzyL5myrryQxfhcefb-57" value="数组内待选数字[]&lt;div&gt;已选取数字[2,1,3]&lt;/div&gt;" style="text;html=1;align=center;verticalAlign=middle;whiteSpace=wrap;rounded=0;" vertex="1" parent="1">
          <mxGeometry x="230" y="550" width="160" height="40" as="geometry" />
        </mxCell>
        <mxCell id="kaJzyL5myrryQxfhcefb-58" value="" style="rounded=1;whiteSpace=wrap;html=1;" vertex="1" parent="1">
          <mxGeometry x="440" y="540" width="180" height="60" as="geometry" />
        </mxCell>
        <mxCell id="kaJzyL5myrryQxfhcefb-59" value="数组内待选数字[]&lt;div&gt;已选取数字[2,3,1&lt;span style=&quot;background-color: initial;&quot;&gt;]&lt;/span&gt;&lt;/div&gt;" style="text;html=1;align=center;verticalAlign=middle;whiteSpace=wrap;rounded=0;" vertex="1" parent="1">
          <mxGeometry x="450" y="550" width="160" height="40" as="geometry" />
        </mxCell>
        <mxCell id="kaJzyL5myrryQxfhcefb-68" style="edgeStyle=orthogonalEdgeStyle;rounded=0;orthogonalLoop=1;jettySize=auto;html=1;exitX=0.5;exitY=1;exitDx=0;exitDy=0;entryX=0.5;entryY=0;entryDx=0;entryDy=0;" edge="1" parent="1" source="kaJzyL5myrryQxfhcefb-70" target="kaJzyL5myrryQxfhcefb-76">
          <mxGeometry relative="1" as="geometry" />
        </mxCell>
        <mxCell id="kaJzyL5myrryQxfhcefb-69" value="选2" style="edgeLabel;html=1;align=center;verticalAlign=middle;resizable=0;points=[];" vertex="1" connectable="0" parent="kaJzyL5myrryQxfhcefb-68">
          <mxGeometry x="-0.1" y="-4" relative="1" as="geometry">
            <mxPoint x="1" as="offset" />
          </mxGeometry>
        </mxCell>
        <mxCell id="kaJzyL5myrryQxfhcefb-70" value="" style="rounded=1;whiteSpace=wrap;html=1;" vertex="1" parent="1">
          <mxGeometry x="660" y="420" width="180" height="60" as="geometry" />
        </mxCell>
        <mxCell id="kaJzyL5myrryQxfhcefb-71" value="数组内待选数字[2]&lt;div&gt;已选取数字[3,1]&lt;/div&gt;" style="text;html=1;align=center;verticalAlign=middle;whiteSpace=wrap;rounded=0;" vertex="1" parent="1">
          <mxGeometry x="670" y="430" width="160" height="40" as="geometry" />
        </mxCell>
        <mxCell id="kaJzyL5myrryQxfhcefb-72" style="edgeStyle=orthogonalEdgeStyle;rounded=0;orthogonalLoop=1;jettySize=auto;html=1;exitX=0.5;exitY=1;exitDx=0;exitDy=0;entryX=0.5;entryY=0;entryDx=0;entryDy=0;" edge="1" parent="1" source="kaJzyL5myrryQxfhcefb-74" target="kaJzyL5myrryQxfhcefb-78">
          <mxGeometry relative="1" as="geometry" />
        </mxCell>
        <mxCell id="kaJzyL5myrryQxfhcefb-73" value="选1" style="edgeLabel;html=1;align=center;verticalAlign=middle;resizable=0;points=[];" vertex="1" connectable="0" parent="kaJzyL5myrryQxfhcefb-72">
          <mxGeometry x="-0.0333" y="2" relative="1" as="geometry">
            <mxPoint as="offset" />
          </mxGeometry>
        </mxCell>
        <mxCell id="kaJzyL5myrryQxfhcefb-74" value="" style="rounded=1;whiteSpace=wrap;html=1;" vertex="1" parent="1">
          <mxGeometry x="880" y="420" width="180" height="60" as="geometry" />
        </mxCell>
        <mxCell id="kaJzyL5myrryQxfhcefb-75" value="数组内待选数字[1]&lt;div&gt;已选取数字[3,2]&lt;/div&gt;" style="text;html=1;align=center;verticalAlign=middle;whiteSpace=wrap;rounded=0;" vertex="1" parent="1">
          <mxGeometry x="890" y="430" width="160" height="40" as="geometry" />
        </mxCell>
        <mxCell id="kaJzyL5myrryQxfhcefb-76" value="" style="rounded=1;whiteSpace=wrap;html=1;" vertex="1" parent="1">
          <mxGeometry x="660" y="540" width="180" height="60" as="geometry" />
        </mxCell>
        <mxCell id="kaJzyL5myrryQxfhcefb-77" value="数组内待选数字[]&lt;div&gt;已选取数字[3,1,2]&lt;/div&gt;" style="text;html=1;align=center;verticalAlign=middle;whiteSpace=wrap;rounded=0;" vertex="1" parent="1">
          <mxGeometry x="670" y="550" width="160" height="40" as="geometry" />
        </mxCell>
        <mxCell id="kaJzyL5myrryQxfhcefb-78" value="" style="rounded=1;whiteSpace=wrap;html=1;" vertex="1" parent="1">
          <mxGeometry x="880" y="540" width="180" height="60" as="geometry" />
        </mxCell>
        <mxCell id="kaJzyL5myrryQxfhcefb-79" value="数组内待选数字[]&lt;div&gt;已选取数字[3,2,1&lt;span style=&quot;background-color: initial;&quot;&gt;]&lt;/span&gt;&lt;/div&gt;" style="text;html=1;align=center;verticalAlign=middle;whiteSpace=wrap;rounded=0;" vertex="1" parent="1">
          <mxGeometry x="890" y="550" width="160" height="40" as="geometry" />
        </mxCell>
      </root>
    </mxGraphModel>
  </diagram>
</mxfile>
